<?xml version="1.0" encoding="UTF-8" standalone="no"?>
<!-- Created with Inkscape (http://www.inkscape.org/) -->

<svg
   xmlns:dc="http://purl.org/dc/elements/1.1/"
   xmlns:cc="http://creativecommons.org/ns#"
   xmlns:rdf="http://www.w3.org/1999/02/22-rdf-syntax-ns#"
   xmlns:svg="http://www.w3.org/2000/svg"
   xmlns="http://www.w3.org/2000/svg"
   xmlns:sodipodi="http://sodipodi.sourceforge.net/DTD/sodipodi-0.dtd"
   xmlns:inkscape="http://www.inkscape.org/namespaces/inkscape"
   width="117.84mm"
   height="23.119169mm"
   viewBox="0 0 117.84 23.119169"
   version="1.1"
   id="svg74"
   inkscape:version="0.92.0 r15299"
   sodipodi:docname="eatstreet.svg">
  <defs
     id="defs68" />
  <sodipodi:namedview
     id="base"
     pagecolor="#ffffff"
     bordercolor="#666666"
     borderopacity="1.0"
     inkscape:pageopacity="0.0"
     inkscape:pageshadow="2"
     inkscape:zoom="2.03125"
     inkscape:cx="220.8"
     inkscape:cy="41.800013"
     inkscape:document-units="mm"
     inkscape:current-layer="layer1"
     showgrid="false"
     fit-margin-top="0"
     fit-margin-left="0"
     fit-margin-right="0"
     fit-margin-bottom="0"
     inkscape:window-width="1280"
     inkscape:window-height="744"
     inkscape:window-x="-4"
     inkscape:window-y="-4"
     inkscape:window-maximized="1" />
  <metadata
     id="metadata71">
    <rdf:RDF>
      <cc:Work
         rdf:about="">
        <dc:format>image/svg+xml</dc:format>
        <dc:type
           rdf:resource="http://purl.org/dc/dcmitype/StillImage" />
        <dc:title></dc:title>
      </cc:Work>
    </rdf:RDF>
  </metadata>
  <g
     inkscape:label="Layer 1"
     inkscape:groupmode="layer"
     id="layer1"
     transform="translate(-97.306191,-320.47018)">
    <g
       id="g103"
       transform="translate(0.49999867,-0.50000191)">
      <path
         id="path78"
         d="m 108.39223,321.47018 c -6.11187,0 -11.086039,4.97417 -11.086039,11.08604 0,5.715 4.339169,10.45104 9.895419,11.03313 v -2.30188 c 0,-0.47625 -0.18521,-0.82021 -0.66146,-0.9525 -0.82021,-0.21167 -2.59292,-0.66146 -3.46604,-1.71979 -0.0794,-0.0794 -0.47625,-0.60854 -0.44979,-1.24354 0.0264,-0.68792 0.76729,-11.64167 0.76729,-11.64167 0,-0.23812 0.21166,-0.44979 0.47625,-0.44979 h 0.79375 c 0.13229,0 0.26458,0.0529 0.34396,0.15875 0.0794,0.0794 0.10583,0.18521 0.10583,0.29104 v 0.10583 l -0.58208,9.57792 c 0,0.23813 0.21166,0.44979 0.47625,0.44979 h 1.95791 c 0.26459,0 0.47625,-0.21166 0.47625,-0.44979 v -9.57792 c 0,-0.23812 0.21167,-0.44979 0.47625,-0.44979 h 0.82021 c 0.26458,0 0.47625,0.21167 0.47625,0.44979 v 9.57792 c 0,0.23813 0.21167,0.44979 0.47625,0.44979 h 1.95792 c 0.26458,0 0.47625,-0.21166 0.47625,-0.44979 l -0.58209,-9.57792 v -0.10583 c 0,-0.10583 0.0265,-0.21167 0.10584,-0.29104 0.0794,-0.0794 0.21166,-0.15875 0.34396,-0.15875 h 0.79375 c 0.26458,0 0.47625,0.21167 0.47625,0.44979 0,-0.0265 0.74083,10.84792 0.76729,11.61521 0.0529,0.66146 -0.39688,1.16417 -0.44979,1.24354 -0.84667,1.05833 -2.69875,1.50813 -3.46605,1.71979 -0.52916,0.15875 -0.66145,0.50271 -0.66145,0.9525 v 2.30188 c 5.5827,-0.58209 9.92187,-5.29167 9.92187,-11.03313 0.13229,-6.08541 -4.84187,-11.05958 -10.98021,-11.05958 z"
         class="st0"
         inkscape:connector-curvature="0"
         style="fill:#6bad44;stroke-width:0.26458332" />
      <path
         id="path80"
         d="m 123.26182,338.5358 h 1.85208 v -11.16541 h -1.85208 v -2.14313 h 11.45645 v 3.96875 h -2.43416 v -1.69333 h -4.31271 v 4.23333 h 5.08 v 2.27542 h -5.08 v 4.33917 h 4.65667 v -1.74625 h 2.43416 v 4.02166 h -11.80041 z m 19.2352,-4.70958 h 0.68792 v -0.37042 c 0,-1.40229 -0.89958,-1.905 -2.03729,-1.905 -1.64042,0 -3.12208,1.05834 -3.12208,1.05834 l -1.03188,-1.905 c 0,0 1.71979,-1.37584 4.39208,-1.37584 2.9898,0 4.5773,1.53459 4.5773,4.36563 v 4.445 c 0,0.3175 0.1852,0.47625 0.47625,0.47625 h 1.00541 v 2.06375 h -2.61937 c -1.03188,0 -1.40229,-0.55563 -1.40229,-1.16417 v -0.13229 c 0,-0.34396 0.0529,-0.55562 0.0529,-0.55562 h -0.0529 c 0,0 -0.92605,2.14312 -3.4925,2.14312 -1.87855,0 -3.67771,-1.11125 -3.67771,-3.36021 0.0265,-3.43958 4.47146,-3.78354 6.24416,-3.78354 z m -1.82562,5.02708 c 1.50812,0 2.56646,-1.61395 2.56646,-2.98979 v -0.37041 h -0.44979 c -1.0848,0 -3.70417,0.1852 -3.70417,1.85208 -0.0265,0.82021 0.55562,1.50812 1.5875,1.50812 z m 7.80521,-7.22312 h -1.69334 v -2.06375 h 1.77271 v -3.01625 h 2.67229 v 3.01625 h 2.51355 v 2.06375 h -2.51355 v 4.68312 c 0,1.87855 1.42875,2.14313 2.2225,2.14313 0.3175,0 0.50271,-0.0265 0.50271,-0.0265 v 2.24896 c 0,0 -0.34396,0.0529 -0.84666,0.0529 -1.56105,0 -4.63021,-0.4498 -4.63021,-4.18042 z"
         inkscape:connector-curvature="0"
         style="fill:#357c3d;stroke-width:0.26458332" />
      <path
         id="path82"
         d="m 157.44598,335.78414 v 1.16416 c 0,1.00542 1.27,1.5875 2.72521,1.5875 1.56104,0 2.67229,-0.66145 2.67229,-1.905 0,-1.56104 -1.77271,-2.06375 -3.54541,-2.75166 -2.06375,-0.79375 -4.07459,-1.71979 -4.07459,-4.47146 0,-3.09563 2.51354,-4.31271 5.18584,-4.31271 2.43416,0 4.89479,0.92604 4.89479,2.72521 v 2.01083 h -2.59292 v -1.03187 c 0,-0.79375 -1.16417,-1.19063 -2.30187,-1.19063 -1.27,0 -2.30188,0.52917 -2.30188,1.69334 0,1.40229 1.42875,1.905 3.04271,2.51354 2.30187,0.82021 4.60375,1.74625 4.60375,4.63021 0,3.14854 -2.64583,4.60375 -5.55625,4.60375 -2.56646,0 -5.29167,-1.16417 -5.29167,-3.46605 v -1.7727 h 2.54 z m 10.53042,-4.15396 h -1.69333 v -2.06375 h 1.7727 v -3.01625 h 2.6723 v 3.01625 h 2.51354 v 2.06375 h -2.51354 v 4.68312 c 0,1.87855 1.42875,2.14313 2.2225,2.14313 0.3175,0 0.5027,-0.0265 0.5027,-0.0265 v 2.24896 c 0,0 -0.34395,0.0529 -0.84666,0.0529 -1.56104,0 -4.63021,-0.4498 -4.63021,-4.18042 z m 7.14375,6.95854 h 1.61396 v -6.48229 c 0,-0.29104 -0.18521,-0.47625 -0.47625,-0.47625 h -1.24354 v -2.06375 h 2.88395 c 0.97896,0 1.48167,0.42333 1.48167,1.34937 v 0.66146 c 0,0.42334 -0.0529,0.68792 -0.0529,0.68792 h 0.0529 c 0.50271,-1.5875 1.82562,-2.8575 3.51896,-2.8575 0.26458,0 0.50271,0.0529 0.50271,0.0529 v 2.7252 c 0,0 -0.29105,-0.0529 -0.66146,-0.0529 -2.24896,0 -3.22792,1.95791 -3.22792,4.04812 v 2.40771 h 1.5875 v 2.06375 h -5.95312 v -2.06375 z m 14.63146,-9.28687 c 3.20145,0 4.92125,2.32833 4.92125,5.2652 0,0.3175 -0.0529,0.92605 -0.0529,0.92605 h -7.67292 c 0.18521,2.03729 1.64042,3.09562 3.33375,3.09562 1.79917,0 3.22792,-1.16417 3.22792,-1.16417 l 1.05833,1.95792 c 0,0 -1.69333,1.53458 -4.47146,1.53458 -3.6777,0 -5.95312,-2.64583 -5.95312,-5.79437 -0.0265,-3.41313 2.27542,-5.82083 5.60917,-5.82083 z m 2.06375,4.57729 c -0.0529,-1.53459 -0.97896,-2.43417 -2.14313,-2.43417 -1.40229,0 -2.40771,0.97896 -2.67229,2.43417 z m 9.78958,-4.57729 c 3.20146,0 4.92125,2.32833 4.92125,5.2652 0,0.3175 -0.0529,0.92605 -0.0529,0.92605 h -7.67291 c 0.1852,2.03729 1.64041,3.09562 3.33375,3.09562 1.79916,0 3.22791,-1.16417 3.22791,-1.16417 l 1.05834,1.95792 c 0,0 -1.69334,1.53458 -4.47146,1.53458 -3.67771,0 -5.95313,-2.64583 -5.95313,-5.79437 -0.0265,-3.41313 2.27542,-5.82083 5.60917,-5.82083 z m 2.09021,4.57729 c -0.0529,-1.53459 -0.97896,-2.43417 -2.14313,-2.43417 -1.40229,0 -2.40771,0.97896 -2.67229,2.43417 z m 4.97416,-2.24896 h -1.69333 v -2.06375 h 1.77271 v -3.01625 h 2.67229 v 3.01625 h 2.51354 v 2.06375 h -2.51354 v 4.68312 c 0,1.87855 1.42875,2.14313 2.2225,2.14313 0.3175,0 0.50271,-0.0265 0.50271,-0.0265 v 2.24896 c 0,0 -0.34396,0.0529 -0.84667,0.0529 -1.56104,0 -4.63021,-0.4498 -4.63021,-4.18042 z"
         class="st0"
         inkscape:connector-curvature="0"
         style="fill:#6bad44;stroke-width:0.26458332" />
    </g>
  </g>
  <style
     id="style76">.st0{fill:#6bad44}</style>
</svg>
