<?xml version="1.0" standalone="no"?>
<!DOCTYPE svg PUBLIC "-//W3C//DTD SVG 20010904//EN"
 "http://www.w3.org/TR/2001/REC-SVG-20010904/DTD/svg10.dtd">
<svg version="1.0" xmlns="http://www.w3.org/2000/svg"
 width="720.000000pt" height="720.000000pt" viewBox="0 0 720.000000 720.000000"
 preserveAspectRatio="xMidYMid meet">
<metadata>
Created by potrace 1.16, written by Peter Selinger 2001-2019
</metadata>
<g transform="translate(0.000000,720.000000) scale(0.100000,-0.100000)"
fill="#000000" stroke="none">
<path d="M0 3600 l0 -3600 3600 0 3600 0 0 3600 0 3600 -3600 0 -3600 0 0
-3600z m1812 773 c3 -258 5 -281 24 -318 31 -61 86 -85 195 -85 95 0 131 9
168 43 47 44 52 73 51 307 0 119 2 243 6 274 l7 56 84 0 85 0 -4 -292 c-3
-283 -4 -295 -27 -346 -30 -67 -104 -135 -174 -159 -41 -14 -82 -18 -197 -18
-125 1 -152 4 -200 23 -76 30 -124 73 -157 140 l-28 57 -3 284 c-2 156 -1 290
2 297 4 10 27 14 85 14 l80 0 3 -277z m1474 266 c116 -21 171 -73 181 -171 7
-68 -10 -129 -46 -171 l-29 -33 34 -22 c52 -34 78 -93 78 -177 0 -114 -47
-180 -151 -211 -62 -19 -573 -20 -591 -2 -9 9 -12 109 -12 389 l0 378 22 15
c19 13 59 16 238 16 119 0 243 -5 276 -11z m1220 -2 c3 -8 -6 -40 -20 -71
l-25 -56 -235 0 -236 0 0 -100 0 -100 195 0 c107 0 195 -2 195 -4 0 -3 -12
-32 -26 -65 l-27 -61 -146 0 c-192 0 -191 1 -191 -121 l0 -89 260 0 c143 0
260 -3 260 -7 0 -21 -47 -123 -59 -128 -7 -3 -151 -2 -318 1 l-305 7 -9 24
c-5 14 -6 174 -1 391 l7 366 25 13 c38 19 648 19 656 0z m909 -20 c51 -23 93
-63 110 -105 24 -56 29 -143 11 -204 -20 -68 -46 -103 -99 -130 -23 -11 -43
-22 -45 -23 -2 -1 37 -72 87 -156 49 -85 87 -157 84 -161 -8 -14 -170 -9 -181
5 -5 6 -45 77 -87 155 l-78 144 -109 -4 c-142 -4 -138 1 -138 -176 l0 -133
-72 2 c-40 1 -79 4 -85 7 -10 3 -13 90 -13 387 0 342 2 385 16 400 15 15 47
16 288 13 234 -3 276 -6 311 -21z m4 -1452 c52 -16 53 -17 47 -47 -3 -18 -7
-33 -9 -34 -1 -1 -36 7 -77 18 -103 27 -238 22 -296 -11 -97 -55 -99 -167 -3
-216 15 -9 82 -30 147 -49 134 -38 185 -62 224 -103 95 -100 47 -272 -94 -333
-100 -43 -284 -35 -394 17 -34 16 -39 22 -36 48 2 17 5 32 7 33 2 2 34 -9 72
-24 60 -25 81 -28 178 -29 99 0 114 2 154 25 108 60 114 184 12 244 -18 10
-87 34 -153 53 -66 18 -136 42 -157 52 -83 43 -120 120 -101 208 19 82 65 126
165 160 53 17 242 10 314 -12z m-3139 -21 l0 -36 -245 3 -245 4 0 -142 0 -143
215 0 215 0 0 -30 0 -30 -215 0 -215 0 0 -160 0 -160 255 0 255 0 0 -35 0 -35
-295 0 -295 0 0 400 0 400 285 0 285 0 0 -36z m1069 -346 c96 -211 178 -391
183 -400 8 -16 3 -18 -35 -18 l-44 0 -45 103 -45 102 -239 2 -239 3 -45 -105
-45 -105 -43 0 -42 0 14 33 c7 17 75 165 151 327 76 162 152 328 171 368 l33
72 48 0 48 0 174 -382z m1171 347 l0 -35 -150 0 -150 0 0 -365 0 -365 -40 0
-40 0 0 365 0 365 -150 0 -150 0 0 35 0 35 340 0 340 0 0 -35z"/>
<path d="M2920 4409 l0 -100 164 3 c144 3 167 5 185 22 41 37 35 142 -9 166
-10 6 -91 10 -179 10 l-161 0 0 -101z"/>
<path d="M2975 4183 c-47 -12 -55 -31 -55 -125 l0 -88 164 0 c225 0 244 8 247
110 2 44 -2 55 -24 78 -27 26 -30 27 -170 29 -78 1 -151 -1 -162 -4z"/>
<path d="M4970 4390 l0 -120 165 0 c223 0 236 7 236 124 0 63 -14 92 -55 106
-16 5 -100 10 -187 10 l-159 0 0 -120z"/>
<path d="M3022 2891 c-56 -126 -102 -232 -102 -235 0 -3 92 -6 205 -6 113 0
205 2 205 5 0 2 -38 91 -84 197 -46 106 -91 210 -99 231 -9 20 -18 37 -20 37
-2 0 -50 -103 -105 -229z"/>
</g>
</svg>
