<svg id="svg" version="1.1" xmlns="http://www.w3.org/2000/svg" xmlns:xlink="http://www.w3.org/1999/xlink" width="400" height="400" viewBox="0, 0, 400,400"><g id="svgg"><path id="path0" d="M62.667 256.500 L 62.667 302.667 95.000 302.667 L 127.333 302.667 127.333 294.750 L 127.333 286.833 103.750 286.833 L 80.167 286.833 80.167 275.333 L 80.167 263.833 103.167 263.833 L 126.167 263.833 126.167 256.250 L 126.167 248.667 103.167 248.667 L 80.167 248.667 80.167 237.333 L 80.167 226.000 103.750 226.000 L 127.333 226.000 127.333 218.167 L 127.333 210.333 95.000 210.333 L 62.667 210.333 62.667 256.500 M230.167 224.750 L 230.167 234.500 223.583 234.500 L 217.000 234.500 217.000 242.167 L 217.000 249.833 223.583 249.833 L 230.167 249.833 230.167 268.676 C 230.167 281.512,230.225 287.902,230.350 288.718 C 231.395 295.569,235.577 300.031,242.750 301.947 L 244.417 302.392 255.625 302.457 L 266.833 302.521 266.833 294.844 L 266.833 287.167 259.792 287.164 C 250.285 287.161,249.194 286.874,247.857 284.023 L 247.417 283.083 247.417 266.500 L 247.417 249.917 257.125 249.874 L 266.833 249.831 266.833 242.167 L 266.833 234.503 257.125 234.460 L 247.417 234.417 247.374 224.708 L 247.331 215.000 238.749 215.000 L 230.167 215.000 230.167 224.750 M165.917 232.921 C 140.889 235.861,126.575 262.563,138.048 284.909 C 147.971 304.237,173.726 310.428,190.761 297.580 C 191.548 296.986,192.224 296.500,192.263 296.500 C 192.302 296.500,192.333 297.850,192.333 299.500 L 192.333 302.500 200.917 302.500 L 209.500 302.500 209.500 268.500 L 209.500 234.500 200.917 234.500 L 192.333 234.500 192.333 237.500 C 192.333 239.150,192.287 240.500,192.231 240.500 C 192.175 240.500,191.782 240.210,191.356 239.855 C 184.965 234.526,175.114 231.841,165.917 232.921 M299.083 232.846 C 283.376 234.247,274.262 241.213,273.321 252.536 C 272.410 263.503,279.103 270.278,294.292 273.762 C 295.277 273.988,297.058 274.396,298.250 274.669 C 299.442 274.943,301.542 275.429,302.917 275.750 C 304.292 276.071,306.917 276.674,308.750 277.089 C 314.511 278.395,315.530 278.678,316.833 279.340 C 321.803 281.863,320.185 287.515,313.917 289.525 C 310.231 290.707,302.849 290.724,298.333 289.560 C 293.665 288.357,290.576 285.545,289.321 281.359 L 289.114 280.667 280.462 280.667 C 272.302 280.667,271.816 280.683,271.896 280.958 C 271.943 281.119,272.167 282.000,272.395 282.917 C 275.889 296.983,287.495 304.246,306.417 304.207 C 325.491 304.168,337.255 295.599,337.249 281.750 C 337.245 274.547,333.686 269.327,326.316 265.714 C 321.998 263.598,320.380 263.183,302.333 259.563 C 293.546 257.800,291.038 256.382,291.007 253.155 C 290.966 248.836,295.142 246.568,303.083 246.597 C 311.725 246.628,316.168 248.997,318.094 254.602 L 318.660 256.250 327.185 256.293 L 335.710 256.336 335.595 255.127 C 334.128 239.712,319.841 230.994,299.083 232.846 M175.179 247.936 C 192.981 250.987,198.901 273.855,184.750 284.906 C 171.066 295.592,151.002 285.951,150.956 268.667 C 150.921 255.647,162.475 245.759,175.179 247.936 " stroke="none" fill="#5bb30b" fill-rule="evenodd"></path><path id="path1" d="M63.044 126.875 C 63.104 160.606,63.046 158.406,63.995 162.633 C 66.279 172.808,72.354 180.936,81.017 185.409 C 94.316 192.276,110.767 190.180,120.938 180.323 C 121.500 179.779,122.006 179.333,122.063 179.333 C 122.120 179.333,122.167 181.246,122.167 183.583 L 122.167 187.833 128.917 187.833 L 135.667 187.833 135.667 141.833 L 135.667 95.833 128.833 95.833 L 122.000 95.833 122.000 125.213 C 122.000 154.609,121.978 155.842,121.414 158.583 C 119.091 169.871,110.496 177.026,99.275 177.013 C 87.813 177.000,79.520 169.821,77.311 158.000 L 76.922 155.917 76.873 125.875 L 76.824 95.833 69.906 95.833 L 62.989 95.833 63.044 126.875 M148.000 141.833 L 148.000 187.833 154.500 187.833 L 161.000 187.833 161.000 183.646 L 161.000 179.459 162.213 180.545 C 176.196 193.060,197.314 192.404,210.579 179.042 C 225.351 164.162,223.637 139.383,206.953 126.635 C 193.515 116.366,173.794 117.212,162.042 128.560 L 161.167 129.405 161.167 112.619 L 161.167 95.833 154.583 95.833 L 148.000 95.833 148.000 141.833 M256.533 119.762 C 234.714 122.941,221.599 144.791,228.698 166.138 C 237.264 191.897,272.848 197.846,290.230 176.423 C 291.364 175.026,291.876 175.650,286.211 171.521 C 281.227 167.887,281.723 168.122,280.994 169.042 C 271.895 180.504,254.340 180.922,245.181 169.894 C 242.626 166.816,240.758 162.864,240.246 159.451 L 240.129 158.667 267.339 158.667 L 294.549 158.667 294.451 154.375 C 294.221 144.359,291.536 136.872,285.848 130.383 C 278.803 122.346,267.329 118.189,256.533 119.762 M329.843 120.520 C 324.999 121.081,320.040 124.062,317.457 127.963 L 316.750 129.031 316.705 124.932 L 316.661 120.833 310.164 120.833 L 303.667 120.833 303.667 154.333 L 303.667 187.833 310.250 187.833 L 316.833 187.833 316.833 167.980 C 316.833 144.467,316.823 144.599,318.942 140.423 C 321.727 134.934,325.540 132.848,333.042 132.709 L 337.167 132.633 337.167 126.483 L 337.167 120.333 334.125 120.355 C 332.452 120.367,330.525 120.441,329.843 120.520 M265.070 131.514 C 272.800 133.089,279.666 140.039,281.068 147.708 L 281.182 148.333 260.841 148.333 C 240.811 148.333,240.500 148.328,240.500 148.010 C 240.500 147.416,241.625 144.243,242.339 142.821 C 245.744 136.045,251.529 132.017,259.167 131.101 C 260.311 130.964,263.444 131.183,265.070 131.514 M188.035 131.600 C 203.445 134.521,211.608 151.227,204.461 165.217 C 195.556 182.649,169.738 181.449,162.337 163.259 C 155.443 146.317,170.143 128.208,188.035 131.600 " stroke="none" fill="#fbfbfb" fill-rule="evenodd"></path><path id="path2" d="M0.000 200.000 L 0.000 400.000 200.000 400.000 L 400.000 400.000 400.000 200.000 L 400.000 0.000 200.000 0.000 L 0.000 0.000 0.000 200.000 M77.014 126.167 C 77.084 148.176,77.164 156.874,77.305 157.635 C 79.544 169.801,87.666 176.901,99.333 176.891 C 109.441 176.883,117.306 171.226,120.511 161.662 C 121.973 157.297,121.991 156.843,121.996 123.708 L 122.000 95.667 128.833 95.667 L 135.667 95.667 135.667 141.835 L 135.667 188.004 128.875 187.960 L 122.083 187.917 122.000 183.699 L 121.917 179.481 121.333 180.089 C 117.685 183.894,110.521 187.726,105.167 188.738 C 104.846 188.799,103.946 188.970,103.167 189.117 C 101.326 189.467,94.730 189.516,92.667 189.197 C 76.255 186.652,65.479 175.505,63.243 158.761 C 63.037 157.219,63.000 152.220,63.000 126.300 L 63.000 95.663 69.958 95.707 L 76.917 95.750 77.014 126.167 M161.292 112.391 L 161.335 129.033 162.459 128.049 C 165.018 125.811,167.882 123.859,170.176 122.791 C 174.145 120.943,177.182 120.061,181.250 119.575 C 184.611 119.174,189.612 119.361,192.381 119.992 C 195.727 120.754,197.069 121.166,199.333 122.128 C 222.625 132.018,228.130 162.456,209.790 179.941 C 200.467 188.828,186.494 191.877,174.167 187.715 C 169.797 186.239,165.550 183.716,162.256 180.640 L 161.000 179.467 161.000 183.735 L 161.000 188.004 154.458 187.960 L 147.917 187.917 147.874 142.000 C 147.851 116.746,147.867 95.989,147.911 95.873 C 147.974 95.708,149.406 95.672,154.621 95.706 L 161.250 95.750 161.292 112.391 M264.833 119.572 C 278.135 121.076,288.400 129.463,292.741 142.373 C 293.976 146.045,294.464 149.480,294.535 155.000 L 294.583 158.750 267.458 158.792 L 240.333 158.834 240.333 159.296 C 240.333 160.259,241.242 163.149,242.164 165.117 C 249.166 180.066,270.849 182.260,280.882 169.034 C 281.695 167.962,281.177 167.743,285.760 171.094 C 287.863 172.632,289.940 174.147,290.375 174.461 C 291.361 175.171,291.364 175.134,290.216 176.565 C 284.484 183.712,275.787 188.404,266.500 189.360 C 264.459 189.570,258.028 189.451,256.667 189.178 C 256.162 189.077,255.338 188.917,254.833 188.822 C 236.041 185.278,223.965 167.484,227.186 148.083 C 230.133 130.330,247.001 117.556,264.833 119.572 M337.167 126.500 L 337.167 132.667 334.095 132.667 C 326.571 132.667,322.462 134.583,319.569 139.440 C 318.581 141.099,318.004 142.594,317.297 145.333 C 317.158 145.874,317.078 151.932,317.010 167.000 L 316.917 187.917 310.292 187.960 L 303.667 188.004 303.667 154.419 L 303.667 120.833 310.167 120.833 L 316.667 120.833 316.667 124.844 L 316.667 128.854 317.657 127.540 C 320.339 123.980,324.216 121.489,328.333 120.679 C 329.746 120.401,330.013 120.385,333.708 120.358 L 337.167 120.333 337.167 126.500 M257.337 131.430 C 249.117 132.928,243.106 138.820,240.560 147.875 C 240.482 148.152,241.525 148.167,260.798 148.167 L 281.118 148.167 280.906 147.375 C 277.930 136.273,267.920 129.501,257.337 131.430 M181.083 131.437 C 161.679 134.373,153.817 157.169,167.495 170.838 C 178.764 182.101,198.013 178.793,204.757 164.434 C 211.153 150.817,203.473 135.246,188.667 131.808 C 187.282 131.487,182.351 131.246,181.083 131.437 M127.500 218.167 L 127.500 226.167 103.833 226.167 L 80.167 226.167 80.167 237.333 L 80.167 248.500 103.167 248.500 L 126.167 248.500 126.167 256.250 L 126.167 264.000 103.166 264.000 L 80.164 264.000 80.207 275.375 L 80.250 286.750 103.875 286.792 L 127.500 286.834 127.500 294.751 L 127.500 302.667 95.083 302.667 L 62.667 302.667 62.667 256.417 L 62.667 210.167 95.083 210.167 L 127.500 210.167 127.500 218.167 M247.500 224.667 L 247.500 234.333 257.168 234.333 L 266.837 234.333 266.793 242.125 L 266.750 249.917 257.125 249.960 L 247.500 250.003 247.500 266.412 C 247.500 284.655,247.449 283.788,248.614 285.173 C 250.038 286.866,250.814 286.996,259.458 286.998 L 266.833 287.000 266.833 294.846 L 266.833 302.692 255.958 302.622 C 245.461 302.555,245.026 302.540,243.419 302.182 C 235.672 300.454,231.005 295.443,230.179 287.965 C 230.063 286.912,230.000 279.993,230.000 268.173 L 230.000 250.000 223.500 250.000 L 217.000 250.000 217.000 242.167 L 217.000 234.333 223.583 234.333 L 230.167 234.333 230.167 224.667 L 230.167 215.000 238.833 215.000 L 247.500 215.000 247.500 224.667 M174.310 232.837 C 180.219 233.459,186.082 235.784,190.895 239.414 L 192.333 240.499 192.333 237.416 L 192.333 234.333 201.000 234.333 L 209.667 234.333 209.625 268.458 L 209.583 302.583 200.958 302.626 L 192.333 302.670 192.333 299.577 L 192.333 296.485 190.995 297.504 C 179.480 306.269,162.238 306.662,150.102 298.434 C 124.524 281.091,130.628 242.292,160.250 233.932 C 164.224 232.811,169.880 232.370,174.310 232.837 M311.333 233.055 C 326.497 235.377,334.188 242.464,335.733 255.542 L 335.827 256.333 327.191 256.333 L 318.555 256.333 318.268 255.292 C 316.535 248.996,310.152 245.883,300.604 246.674 C 294.454 247.183,291.373 249.212,291.195 252.870 C 291.007 256.712,292.652 257.513,306.552 260.343 C 310.603 261.168,314.837 262.030,315.963 262.260 C 331.692 265.466,339.276 273.854,337.074 285.608 C 334.853 297.459,323.595 304.250,306.167 304.250 C 289.887 304.250,279.331 299.027,274.272 288.469 C 273.226 286.287,271.833 281.884,271.833 280.761 C 271.833 280.523,272.685 280.501,280.440 280.540 L 289.047 280.583 289.667 282.103 C 292.056 287.965,296.930 290.333,306.602 290.333 C 314.814 290.333,319.572 287.830,319.576 283.505 C 319.580 280.366,317.825 279.217,310.517 277.574 C 291.251 273.241,288.137 272.398,284.083 270.416 C 276.887 266.897,273.480 262.062,273.219 255.000 C 272.756 242.477,282.549 234.004,298.917 232.769 C 300.921 232.617,309.815 232.822,311.333 233.055 M170.000 247.773 C 154.158 249.241,145.678 267.196,154.644 280.287 C 164.959 295.347,188.518 290.571,192.164 272.679 C 194.907 259.221,183.598 246.514,170.000 247.773 " stroke="none" fill="#040404" fill-rule="evenodd"></path><path id="path3" d="M69.875 95.791 L 76.832 95.837 76.875 125.085 L 76.918 154.333 76.917 125.042 L 76.917 95.750 69.917 95.747 L 62.917 95.744 69.875 95.791 M125.375 95.791 C 127.277 95.818,130.390 95.818,132.292 95.791 C 134.194 95.765,132.637 95.743,128.833 95.743 C 125.029 95.743,123.473 95.765,125.375 95.791 M147.910 95.875 C 147.867 95.990,147.851 116.746,147.874 142.000 L 147.917 187.917 154.500 187.920 L 161.083 187.923 154.542 187.876 L 148.000 187.829 148.000 141.833 L 148.000 95.837 154.625 95.792 L 161.250 95.746 154.620 95.706 C 149.439 95.675,147.972 95.712,147.910 95.875 M161.208 112.659 L 161.167 129.401 161.833 128.750 C 162.200 128.392,162.500 128.062,162.500 128.017 C 162.500 127.972,162.238 128.189,161.917 128.499 L 161.335 129.064 161.292 112.490 L 161.248 95.917 161.208 112.659 M184.133 119.457 C 184.894 119.488,186.094 119.488,186.800 119.457 C 187.506 119.426,186.883 119.401,185.417 119.401 C 183.950 119.401,183.372 119.427,184.133 119.457 M260.042 119.457 C 260.660 119.489,261.673 119.489,262.292 119.457 C 262.910 119.425,262.404 119.399,261.167 119.399 C 259.929 119.399,259.423 119.425,260.042 119.457 M320.073 124.875 L 319.583 125.417 320.125 124.927 C 320.630 124.471,320.743 124.333,320.615 124.333 C 320.586 124.333,320.342 124.577,320.073 124.875 M210.417 129.667 C 210.868 130.125,211.275 130.500,211.321 130.500 C 211.367 130.500,211.035 130.125,210.583 129.667 C 210.132 129.208,209.725 128.833,209.679 128.833 C 209.633 128.833,209.965 129.208,210.417 129.667 M236.742 129.542 L 236.083 130.250 236.792 129.591 C 237.450 128.978,237.577 128.833,237.450 128.833 C 237.423 128.833,237.105 129.152,236.742 129.542 M260.208 131.121 C 260.552 131.157,261.115 131.157,261.458 131.121 C 261.802 131.085,261.521 131.056,260.833 131.056 C 260.146 131.056,259.865 131.085,260.208 131.121 M183.125 131.289 C 183.515 131.324,184.152 131.324,184.542 131.289 C 184.931 131.254,184.612 131.225,183.833 131.225 C 183.054 131.225,182.735 131.254,183.125 131.289 M275.083 137.000 C 275.535 137.458,275.942 137.833,275.987 137.833 C 276.033 137.833,275.701 137.458,275.250 137.000 C 274.799 136.542,274.392 136.167,274.346 136.167 C 274.300 136.167,274.632 136.542,275.083 137.000 M321.409 136.875 L 320.750 137.583 321.458 136.925 C 322.117 136.312,322.243 136.167,322.117 136.167 C 322.090 136.167,321.771 136.485,321.409 136.875 M167.412 138.042 L 166.250 139.250 167.458 138.088 C 168.581 137.008,168.743 136.833,168.621 136.833 C 168.595 136.833,168.051 137.377,167.412 138.042 M200.083 138.000 C 200.720 138.642,201.279 139.167,201.324 139.167 C 201.370 139.167,200.887 138.642,200.250 138.000 C 199.613 137.358,199.055 136.833,199.009 136.833 C 198.963 136.833,199.447 137.358,200.083 138.000 M316.874 167.706 L 316.833 187.830 310.208 187.875 L 303.583 187.921 310.214 187.960 C 315.394 187.991,316.861 187.954,316.923 187.792 C 316.967 187.677,316.983 178.583,316.959 167.583 L 316.915 147.583 316.874 167.706 M250.625 148.292 C 256.240 148.316,265.427 148.316,271.042 148.292 C 276.656 148.267,272.063 148.247,260.833 148.247 C 249.604 148.247,245.010 148.267,250.625 148.292 M220.542 151.083 C 220.544 151.450,220.578 151.580,220.618 151.373 C 220.658 151.166,220.656 150.866,220.615 150.706 C 220.573 150.547,220.540 150.717,220.542 151.083 M294.381 151.250 C 294.382 151.708,294.415 151.876,294.453 151.623 C 294.491 151.369,294.490 150.994,294.451 150.789 C 294.411 150.584,294.380 150.792,294.381 151.250 M226.735 154.167 C 226.735 155.679,226.760 156.298,226.791 155.542 C 226.822 154.785,226.822 153.548,226.791 152.792 C 226.760 152.035,226.735 152.654,226.735 154.167 M121.889 154.000 C 121.889 154.688,121.919 154.969,121.955 154.625 C 121.991 154.281,121.991 153.719,121.955 153.375 C 121.919 153.031,121.889 153.313,121.889 154.000 M207.057 154.583 C 207.058 155.317,207.087 155.596,207.122 155.204 C 207.157 154.812,207.157 154.212,207.121 153.871 C 207.085 153.529,207.057 153.850,207.057 154.583 M220.721 154.417 C 220.722 155.058,220.752 155.300,220.788 154.955 C 220.824 154.609,220.824 154.084,220.787 153.788 C 220.750 153.492,220.721 153.775,220.721 154.417 M160.545 154.500 C 160.545 154.912,160.578 155.081,160.618 154.875 C 160.657 154.669,160.657 154.331,160.618 154.125 C 160.578 153.919,160.545 154.087,160.545 154.500 M294.534 157.125 L 294.500 158.667 267.333 158.667 L 240.167 158.667 240.189 159.125 C 240.209 159.518,240.222 159.530,240.284 159.208 L 240.357 158.833 267.433 158.833 C 289.846 158.833,294.525 158.795,294.596 158.611 C 294.643 158.489,294.656 157.758,294.624 156.986 L 294.568 155.583 294.534 157.125 M63.048 156.750 C 63.049 157.208,63.081 157.376,63.120 157.123 C 63.158 156.869,63.157 156.494,63.117 156.289 C 63.078 156.084,63.046 156.292,63.048 156.750 M220.542 157.750 C 220.544 158.117,220.578 158.247,220.618 158.040 C 220.658 157.832,220.656 157.532,220.615 157.373 C 220.573 157.214,220.540 157.383,220.542 157.750 M200.245 170.875 L 199.250 171.917 200.292 170.922 C 201.259 169.998,201.410 169.833,201.286 169.833 C 201.261 169.833,200.792 170.302,200.245 170.875 M279.740 170.375 L 279.250 170.917 279.792 170.427 C 280.297 169.971,280.410 169.833,280.281 169.833 C 280.252 169.833,280.009 170.077,279.740 170.375 M83.583 170.833 C 83.941 171.200,84.272 171.500,84.318 171.500 C 84.363 171.500,84.108 171.200,83.750 170.833 C 83.392 170.467,83.062 170.167,83.016 170.167 C 82.970 170.167,83.225 170.467,83.583 170.833 M167.000 170.552 C 167.000 170.581,167.244 170.825,167.542 171.094 L 168.083 171.583 167.594 171.042 C 167.138 170.537,167.000 170.423,167.000 170.552 M246.326 171.208 C 247.017 171.944,247.167 172.077,247.167 171.951 C 247.167 171.925,246.810 171.568,246.375 171.160 L 245.583 170.417 246.326 171.208 M278.240 171.875 L 277.750 172.417 278.292 171.927 C 278.797 171.471,278.910 171.333,278.781 171.333 C 278.752 171.333,278.509 171.577,278.240 171.875 M96.542 176.948 C 96.702 176.990,96.965 176.990,97.125 176.948 C 97.285 176.906,97.154 176.872,96.833 176.872 C 96.513 176.872,96.381 176.906,96.542 176.948 M101.460 176.951 C 101.668 176.991,101.968 176.990,102.127 176.948 C 102.286 176.906,102.117 176.874,101.750 176.875 C 101.383 176.877,101.253 176.911,101.460 176.951 M181.460 177.618 C 181.668 177.658,181.968 177.656,182.127 177.615 C 182.286 177.573,182.117 177.540,181.750 177.542 C 181.383 177.544,181.253 177.578,181.460 177.618 M184.458 177.621 C 184.756 177.658,185.244 177.658,185.542 177.621 C 185.840 177.584,185.596 177.553,185.000 177.553 C 184.404 177.553,184.160 177.584,184.458 177.621 M211.409 178.208 L 210.750 178.917 211.458 178.258 C 212.117 177.645,212.243 177.500,212.117 177.500 C 212.090 177.500,211.771 177.819,211.409 178.208 M261.875 177.955 C 262.219 177.991,262.781 177.991,263.125 177.955 C 263.469 177.919,263.188 177.889,262.500 177.889 C 261.813 177.889,261.531 177.919,261.875 177.955 M236.667 179.250 C 237.257 179.846,237.778 180.333,237.824 180.333 C 237.870 180.333,237.424 179.846,236.833 179.250 C 236.243 178.654,235.722 178.167,235.676 178.167 C 235.630 178.167,236.076 178.654,236.667 179.250 M287.578 179.375 L 286.583 180.417 287.625 179.422 C 288.198 178.875,288.667 178.406,288.667 178.380 C 288.667 178.257,288.502 178.407,287.578 179.375 M121.734 179.526 C 121.661 179.644,121.688 179.673,121.805 179.601 C 121.944 179.515,122.006 180.602,122.039 183.700 L 122.083 187.917 128.917 187.920 L 135.750 187.922 128.958 187.876 L 122.167 187.830 122.167 183.581 C 122.167 179.628,122.094 178.944,121.734 179.526 M120.667 180.583 C 120.262 180.996,119.968 181.333,120.014 181.333 C 120.060 181.333,120.428 180.996,120.833 180.583 C 121.238 180.171,121.532 179.833,121.486 179.833 C 121.440 179.833,121.072 180.171,120.667 180.583 M209.158 180.458 L 208.583 181.083 209.208 180.509 C 209.552 180.193,209.833 179.912,209.833 179.884 C 209.833 179.757,209.692 179.877,209.158 180.458 M81.167 185.582 C 81.167 185.696,82.187 186.202,82.263 186.125 C 82.300 186.089,82.068 185.935,81.748 185.783 C 81.428 185.630,81.167 185.540,81.167 185.582 M95.711 189.453 C 95.964 189.491,96.339 189.490,96.544 189.451 C 96.749 189.411,96.542 189.380,96.083 189.381 C 95.625 189.382,95.457 189.415,95.711 189.453 M99.125 189.451 C 99.331 189.491,99.669 189.491,99.875 189.451 C 100.081 189.411,99.912 189.379,99.500 189.379 C 99.087 189.379,98.919 189.411,99.125 189.451 M259.375 189.448 C 259.535 189.490,259.798 189.490,259.958 189.448 C 260.119 189.406,259.987 189.372,259.667 189.372 C 259.346 189.372,259.215 189.406,259.375 189.448 " stroke="none" fill="#525351" fill-rule="evenodd"></path><path id="path4" d="M94.958 210.292 L 127.333 210.334 127.333 218.167 L 127.333 225.999 103.708 226.042 L 80.083 226.084 103.792 226.126 L 127.500 226.167 127.500 218.167 L 127.500 210.167 95.042 210.208 L 62.583 210.249 94.958 210.292 M247.415 224.708 L 247.417 234.417 257.083 234.419 L 266.750 234.421 257.126 234.376 L 247.503 234.331 247.458 224.665 L 247.413 215.000 247.415 224.708 M307.208 232.782 C 307.369 232.823,307.631 232.823,307.792 232.782 C 307.952 232.740,307.821 232.705,307.500 232.705 C 307.179 232.705,307.048 232.740,307.208 232.782 M297.627 232.951 C 297.834 232.991,298.134 232.990,298.294 232.948 C 298.453 232.906,298.283 232.874,297.917 232.875 C 297.550 232.877,297.420 232.911,297.627 232.951 M309.375 232.948 C 309.535 232.990,309.798 232.990,309.958 232.948 C 310.119 232.906,309.987 232.872,309.667 232.872 C 309.346 232.872,309.215 232.906,309.375 232.948 M200.875 234.458 L 209.500 234.503 209.500 268.500 L 209.500 302.497 200.917 302.542 L 192.333 302.588 200.958 302.586 L 209.583 302.583 209.625 268.458 L 209.667 234.333 200.959 234.373 L 192.250 234.414 200.875 234.458 M220.197 234.458 C 222.002 234.485,225.002 234.485,226.864 234.458 C 228.726 234.431,227.250 234.409,223.583 234.409 C 219.917 234.409,218.393 234.431,220.197 234.458 M278.578 240.708 L 277.583 241.750 278.625 240.755 C 279.198 240.208,279.667 239.739,279.667 239.714 C 279.667 239.590,279.502 239.741,278.578 240.708 M328.833 240.552 C 328.833 240.581,329.077 240.825,329.375 241.094 L 329.917 241.583 329.427 241.042 C 328.971 240.537,328.833 240.423,328.833 240.552 M144.330 243.292 L 142.917 244.750 144.375 243.337 C 145.729 242.025,145.909 241.833,145.788 241.833 C 145.763 241.833,145.107 242.490,144.330 243.292 M300.960 246.618 C 301.168 246.658,301.468 246.656,301.627 246.615 C 301.786 246.573,301.617 246.540,301.250 246.542 C 300.883 246.544,300.753 246.578,300.960 246.618 M304.125 246.618 C 304.331 246.657,304.669 246.657,304.875 246.618 C 305.081 246.578,304.912 246.545,304.500 246.545 C 304.087 246.545,303.919 246.578,304.125 246.618 M298.875 246.782 C 299.035 246.823,299.298 246.823,299.458 246.782 C 299.619 246.740,299.487 246.705,299.167 246.705 C 298.846 246.705,298.715 246.740,298.875 246.782 M306.542 246.782 C 306.702 246.823,306.965 246.823,307.125 246.782 C 307.285 246.740,307.154 246.705,306.833 246.705 C 306.512 246.705,306.381 246.740,306.542 246.782 M169.794 247.785 C 170.001 247.824,170.301 247.823,170.460 247.781 C 170.620 247.739,170.450 247.707,170.083 247.709 C 169.717 247.711,169.586 247.745,169.794 247.785 M173.127 247.785 C 173.334 247.824,173.634 247.823,173.794 247.781 C 173.953 247.739,173.783 247.707,173.417 247.709 C 173.050 247.711,172.920 247.745,173.127 247.785 M91.625 248.625 C 97.973 248.649,108.360 248.649,114.708 248.625 C 121.056 248.601,115.862 248.581,103.167 248.581 C 90.471 248.581,85.277 248.601,91.625 248.625 M292.573 249.375 L 292.083 249.917 292.625 249.427 C 293.130 248.971,293.243 248.833,293.115 248.833 C 293.086 248.833,292.842 249.077,292.573 249.375 M223.458 249.958 L 229.999 250.004 230.042 268.544 L 230.085 287.083 230.126 268.458 L 230.167 249.833 223.542 249.873 L 216.917 249.913 223.458 249.958 M247.410 250.042 C 247.366 250.156,247.350 257.450,247.375 266.250 L 247.418 282.250 247.459 266.126 L 247.500 250.003 257.125 249.958 L 266.750 249.914 257.120 249.874 C 249.539 249.842,247.473 249.878,247.410 250.042 M315.500 250.417 C 315.811 250.737,316.103 251.000,316.149 251.000 C 316.195 251.000,315.978 250.737,315.667 250.417 C 315.356 250.096,315.064 249.833,315.018 249.833 C 314.972 249.833,315.189 250.096,315.500 250.417 M273.214 252.750 C 273.216 253.208,273.248 253.376,273.286 253.123 C 273.325 252.869,273.324 252.494,273.284 252.289 C 273.244 252.084,273.213 252.292,273.214 252.750 M291.052 253.083 C 291.053 253.633,291.084 253.838,291.121 253.539 C 291.158 253.239,291.157 252.789,291.119 252.539 C 291.081 252.288,291.051 252.533,291.052 253.083 M156.995 253.792 L 155.917 254.917 157.042 253.838 C 158.087 252.836,158.243 252.667,158.120 252.667 C 158.095 252.667,157.588 253.173,156.995 253.792 M273.209 255.917 C 273.211 256.283,273.245 256.414,273.285 256.206 C 273.324 255.999,273.323 255.699,273.281 255.540 C 273.239 255.380,273.207 255.550,273.209 255.917 M91.625 263.958 C 97.973 263.982,108.360 263.982,114.708 263.958 C 121.056 263.934,115.862 263.914,103.167 263.914 C 90.471 263.914,85.277 263.934,91.625 263.958 M134.045 266.000 C 134.045 266.412,134.078 266.581,134.118 266.375 C 134.157 266.169,134.157 265.831,134.118 265.625 C 134.078 265.419,134.045 265.587,134.045 266.000 M192.564 268.583 C 192.564 269.683,192.591 270.112,192.624 269.535 C 192.656 268.959,192.656 268.059,192.623 267.535 C 192.590 267.012,192.563 267.483,192.564 268.583 M150.883 268.500 C 150.883 269.004,150.915 269.210,150.953 268.958 C 150.991 268.706,150.991 268.294,150.953 268.042 C 150.915 267.790,150.883 267.996,150.883 268.500 M134.045 271.000 C 134.045 271.412,134.078 271.581,134.118 271.375 C 134.157 271.169,134.157 270.831,134.118 270.625 C 134.078 270.419,134.045 270.587,134.045 271.000 M151.039 271.000 C 151.039 271.321,151.073 271.452,151.115 271.292 C 151.157 271.131,151.157 270.869,151.115 270.708 C 151.073 270.548,151.039 270.679,151.039 271.000 M276.137 280.625 C 278.549 280.651,282.449 280.651,284.803 280.625 C 287.157 280.599,285.183 280.577,280.417 280.578 C 275.650 280.578,273.724 280.599,276.137 280.625 M186.495 283.292 L 185.417 284.417 186.542 283.338 C 187.587 282.336,187.743 282.167,187.620 282.167 C 187.595 282.167,187.088 282.673,186.495 283.292 M292.250 286.333 C 292.701 286.792,293.108 287.167,293.154 287.167 C 293.200 287.167,292.868 286.792,292.417 286.333 C 291.965 285.875,291.558 285.500,291.513 285.500 C 291.467 285.500,291.799 285.875,292.250 286.333 M127.410 294.750 C 127.410 299.150,127.432 300.926,127.458 298.697 C 127.484 296.468,127.484 292.868,127.458 290.697 C 127.432 288.526,127.410 290.350,127.410 294.750 M256.042 287.125 C 258.035 287.151,261.298 287.151,263.292 287.125 C 265.285 287.098,263.654 287.076,259.667 287.076 C 255.679 287.076,254.048 287.098,256.042 287.125 M169.375 289.282 C 169.535 289.323,169.798 289.323,169.958 289.282 C 170.119 289.240,169.987 289.205,169.667 289.205 C 169.346 289.205,169.215 289.240,169.375 289.282 M173.460 289.285 C 173.668 289.324,173.968 289.323,174.127 289.281 C 174.286 289.239,174.117 289.207,173.750 289.209 C 173.383 289.211,173.253 289.245,173.460 289.285 M305.714 290.457 C 306.245 290.490,307.070 290.490,307.548 290.456 C 308.026 290.422,307.592 290.395,306.583 290.396 C 305.575 290.396,305.184 290.424,305.714 290.457 M144.333 293.750 C 144.924 294.346,145.445 294.833,145.490 294.833 C 145.536 294.833,145.091 294.346,144.500 293.750 C 143.909 293.154,143.389 292.667,143.343 292.667 C 143.297 292.667,143.743 293.154,144.333 293.750 M279.083 295.333 C 279.812 296.067,280.446 296.667,280.492 296.667 C 280.538 296.667,279.979 296.067,279.250 295.333 C 278.521 294.600,277.887 294.000,277.841 294.000 C 277.795 294.000,278.354 294.600,279.083 295.333 M331.500 295.917 C 330.817 296.604,330.296 297.167,330.342 297.167 C 330.388 297.167,330.984 296.604,331.667 295.917 C 332.350 295.229,332.871 294.667,332.825 294.667 C 332.779 294.667,332.183 295.229,331.500 295.917 M234.583 297.667 C 235.035 298.125,235.442 298.500,235.487 298.500 C 235.533 298.500,235.201 298.125,234.750 297.667 C 234.299 297.208,233.892 296.833,233.846 296.833 C 233.800 296.833,234.132 297.208,234.583 297.667 M245.042 302.448 C 245.202 302.490,245.465 302.490,245.625 302.448 C 245.785 302.406,245.654 302.372,245.333 302.372 C 245.012 302.372,244.881 302.406,245.042 302.448 M251.792 302.625 C 254.565 302.651,259.102 302.651,261.875 302.625 C 264.648 302.599,262.379 302.578,256.833 302.578 C 251.287 302.578,249.019 302.599,251.792 302.625 M167.208 304.286 C 167.460 304.324,167.873 304.324,168.125 304.286 C 168.377 304.248,168.171 304.217,167.667 304.217 C 167.162 304.217,166.956 304.248,167.208 304.286 M172.128 304.287 C 172.428 304.325,172.878 304.324,173.128 304.286 C 173.378 304.248,173.133 304.217,172.583 304.218 C 172.033 304.219,171.828 304.250,172.128 304.287 M302.963 304.289 C 303.355 304.324,303.955 304.324,304.296 304.288 C 304.637 304.252,304.317 304.223,303.583 304.224 C 302.850 304.224,302.571 304.254,302.963 304.289 M308.296 304.289 C 308.688 304.324,309.288 304.324,309.629 304.288 C 309.971 304.252,309.650 304.223,308.917 304.224 C 308.183 304.224,307.904 304.254,308.296 304.289 " stroke="none" fill="#305d04" fill-rule="evenodd"></path></g></svg>