<?xml version="1.0" encoding="utf-8"?>
<!-- Generator: Adobe Illustrator 19.2.1, SVG Export Plug-In . SVG Version: 6.00 Build 0)  -->
<svg version="1.1" id="layer" xmlns="http://www.w3.org/2000/svg" xmlns:xlink="http://www.w3.org/1999/xlink" x="0px" y="0px"
	 viewBox="0 0 652 652" style="enable-background:new 0 0 652 652;" xml:space="preserve">
<style type="text/css">
	.st0{fill:#262626;}
	.st1{fill:#7DC240;}
</style>
<g>
	<path id="Fill-1" class="st0" d="M69.2,255.3c17.6,0,29.8-6.5,29.8-25.2v-35.4H87.6c-1,0-1.5,0.5-1.5,1.5v33.4
		c0,11.2-5.1,15.8-16.9,15.8s-16.9-4.6-16.9-15.8v-34.9H40.9c-1,0-1.5,0.5-1.5,1.5v34C39.4,248.8,51.5,255.3,69.2,255.3"/>
	<g id="Group-5" transform="translate(38.431762, 0.000000)">
		<path id="Fill-3" class="st0" d="M172.6,254.9h43.6c1,0,1.4-0.3,1.7-1l3.4-8.1c0.2-0.5,0-0.7-0.5-0.7h-39.9v-10.7
			c0-3.7,2.1-5.4,7.7-5.4h17.3c1,0,1.4-0.3,1.7-1l3.2-7.8c0.2-0.5,0-0.7-0.5-0.7h-29.5v-15.1h35.3c1,0,1.4-0.3,1.7-1l3.4-8.1
			c0.2-0.5,0-0.7-0.5-0.7H174c-4.4,0-6,1.3-6,4.2v52.4C168,253.8,169.2,254.9,172.6,254.9"/>
	</g>
	<path id="Fill-6" class="st0" d="M137.1,233.5c0-3.6,2.1-5.3,7.7-5.3h15.2c7.3,0,9.3,2.7,9.3,8.1c0,5.4-2,8-9.3,8h-22.9V233.5z
		 M137.1,204.2h20.5c6.9,0,8.8,2.5,8.8,7.6c0,5.1-1.9,7.6-8.8,7.6h-20.5V204.2z M128.9,253.8h32.5c12.2,0,21-4.5,21-16.3
		c0-7.1-3.2-13.1-10.1-14.8c5.1-2.5,7.2-7.3,7.2-13c0-13.1-11.2-15-22.7-15h-26.4c-4.4,0-6,1.3-6,4.1v51.5
		C124.3,252.8,125.5,253.8,128.9,253.8L128.9,253.8z"/>
	<path id="Fill-8" class="st0" d="M293.4,204.2h21.3c8,0,9.7,3,9.7,9c0,6.1-1.8,9-9.7,9h-21.3V204.2z M282.2,253.8h11.2v-17.3
		c0-3.6,2.1-5.3,7.6-5.3h11.3l12.4,21.6c0.4,0.6,0.8,1,1.7,1h11.7c0.8,0,0.8-0.7,0.6-1L324.9,230c6.8-1.7,12.3-6.1,12.3-17.1
		c0-14.4-9.2-18.2-24.4-18.2h-26.2c-4.3,0-6,1.3-6,4.1v53.6C280.7,253.4,281.2,253.8,282.2,253.8L282.2,253.8z"/>
	<g id="Group-12" transform="translate(95.920596, 19.076923)">
		<path id="Fill-10" class="st1" d="M471.4,335.5l-9.5-2.3c-25.5-6.4-37.8-10.1-37.8-19.3c0-10.1,11.8-15.1,27-15.1
			c18.9,0,30.7,6.9,37.4,21.1c1.4,2.7,3.3,3.2,6.1,2.3l27.4-10.1c2.8-1.4,3.8-3.2,2.4-6c-11.3-26.6-36.4-40.8-70.9-40.8
			c-43,0-68.6,20.6-68.6,50.4c0,27.1,20.3,39,59.6,49.1l9,2.3c24.1,6,37.8,9.6,37.8,20.2c0,11.9-13.7,17.4-32.2,17.4
			c-22.2,0-37.8-9.6-44.9-27.5c-0.9-2.7-3.3-3.7-6.1-2.3l-24.6,11.5c-2.4,1.4-3.8,3.2-2.8,6c13.7,32.6,38.3,45.9,77.6,45.9
			c43,0,71.9-19.3,71.9-50.9C530,356.5,509.7,344.6,471.4,335.5"/>
	</g>
	<path id="Fill-13" class="st1" d="M68.6,353.1c5.7-24.7,24.9-34.5,43.4-34.5c24,0,36.7,11.5,40,34.5H68.6z M112,284.1
		c-48.4,0-86.1,34.9-86.1,85c0,53.7,37.6,88.2,86.1,88.2c31.5,0,60.7-10.1,76.2-40.4c1.4-2.8,0.5-4.6-2.4-6L159,399
		c-2.8-1.2-4.7-0.5-6.1,2.3c-7.1,13.8-22.1,20.2-40.9,20.2c-16,0-32.4-7.3-40.3-25.9c-2.6-7.6-0.2-12.2,8.4-12.2h109.6
		c2.8,0,4.7-1.8,4.7-4.6v-5.5C194.3,318.1,162.3,284.1,112,284.1L112,284.1z"/>
	<g id="Group-17" transform="translate(37.796526, 19.076923)">
		<path id="Fill-15" class="st1" d="M277.1,377.2c0,16-22.5,27.1-44.2,27.1c-16,0-26.8-6.4-26.8-17.4c0-12.8,15.5-17,29.6-19.7
			l41.3-9.2V377.2z M318.4,384.1v-53.6c0-44.5-27.7-65.1-72.3-65.1c-39.9,0-66.2,17.4-75.6,41.3c-0.9,2.8,0.5,5,2.8,6l27.2,11.9
			c2.8,1.4,4.7,0.5,6.1-2.3c8-17,19.7-22,39.5-22c17.4,0,30.1,7.3,30.1,18.3c0,5-2.3,8.3-7.5,11c-7.5,3.7-22.5,5.5-46.5,11
			c-33.3,7.8-56.4,17.4-56.4,47.7c0,33.5,28.7,50,61.5,50c23.5,0,44.2-8.3,53.1-22.5h0.5c1.4,5,3.3,11.5,6.1,16
			c0.9,1.8,2.8,2.7,5.2,2.7h34.3c3.8,0,5.2-2.3,3.3-5.5C322.6,418.4,318.4,406.1,318.4,384.1L318.4,384.1z"/>
	</g>
	<path id="Fill-18" class="st1" d="M462,415.5c-1.4-2.7-3.3-3.2-6.1-2.3c-7.5,3.2-14.1,4.6-18.8,4.6c-10.8,0-18.3-6.4-18.3-20.1
		v-63.1c0-6.9,4.7-11.4,11.7-11.4h32.4c2.8,0,4.7-1.8,4.7-4.6v-25.6c0-2.7-1.9-4.6-4.7-4.6h-44.1v-35.7c0-2.7-1.9-4.6-4.7-4.6h-31.9
		c-2.8,0-4.7,1.8-4.7,4.6v149.2c0,35.2,21.1,52.6,54.9,52.6c13.6,0,25.8-3.2,38.9-9.2c2.8-0.9,3.8-3.7,2.3-5.9L462,415.5z"/>
</g>
</svg>
